<svg xmlns="http://www.w3.org/2000/svg" viewBox="0 0 256 256">
  <rect width="256" height="256" rx="56" fill="#0f172a" />
  <path
    d="M128 216.5c-4.7 0-9.2-1.4-13-4.1C85.1 191.7 32 150.9 32 96.8 32 63.5 58.3 37 91.8 37c16.2 0 31.8 6.8 43.2 18.8C146.4 43.8 162 37 178.2 37 211.7 37 238 63.5 238 96.8c0 54.1-53.1 94.9-83 115.6-3.8 2.7-8.3 4.1-13 4.1Z"
    fill="#ff5fa9"
  />
  <path
    d="M178.2 49c-14.8 0-29.1 6.6-38.4 18.2a12 12 0 0 1-18.6 0C111.9 55.6 97.6 49 82.8 49 66 49 56 61.8 56 96.8c0 41.7 45.8 78.5 72 97.6 26.2-19 72-55.9 72-97.6C200 61.8 190 49 178.2 49Z"
    fill="#ffd6ea"
  />
</svg>
